<svg width="92" height="95" viewBox="0 0 92 95" fill="none" xmlns="http://www.w3.org/2000/svg">
<path d="M52.9026 63.8345L80.2507 92.0942" stroke="#6B442E" stroke-width="1.5"/>
<path d="M61.8076 54.6325L89.1557 82.8922" stroke="#6B442E" stroke-width="1.5"/>
<path d="M89.1557 82.8923C90.3366 84.1125 91 85.7675 91 87.4932C91 89.2189 90.3366 90.8739 89.1557 92.0942" stroke="#6B442E" stroke-width="1.5" stroke-linecap="round" stroke-linejoin="round"/>
<path d="M80.2506 92.0942C81.4315 93.3145 83.0332 94 84.7032 94C86.3732 94 87.9748 93.3145 89.1557 92.0942" stroke="#6B442E" stroke-width="1.5" stroke-linecap="round" stroke-linejoin="round"/>
<path d="M29.3358 1.00008C33.0569 1.00008 36.7415 1.75743 40.1794 3.2289C43.6172 4.70038 46.7409 6.85715 49.3722 9.57608C52.0034 12.295 54.0906 15.5228 55.5146 19.0753C56.9386 22.6277 57.6715 26.4352 57.6715 30.2804C57.6715 34.1255 56.9386 37.933 55.5146 41.4854C54.0906 45.0379 52.0034 48.2657 49.3722 50.9847C46.7409 53.7036 43.6172 55.8604 40.1794 57.3318C36.7415 58.8033 33.0569 59.5607 29.3358 59.5607C21.8206 59.5607 14.6133 56.4758 9.29935 50.9847C3.98537 45.4935 1 38.046 1 30.2804C1 26.4352 1.73293 22.6277 3.15693 19.0753C4.58094 15.5228 6.66813 12.295 9.29935 9.57608C11.9306 6.85715 15.0543 4.70038 18.4921 3.2289C21.93 1.75743 25.6147 1.00008 29.3358 1.00008Z" stroke="#6B442E" stroke-width="1.5" stroke-linecap="round" stroke-linejoin="round"/>
<path d="M52.9026 63.8347L61.8077 54.6328" stroke="#6B442E" stroke-width="1.5" stroke-linecap="round" stroke-linejoin="round"/>
<path d="M57.3551 59.2335L49.3722 50.9845" stroke="#6B442E" stroke-width="1.5" stroke-linecap="round" stroke-linejoin="round"/>
<path d="M60.5035 71.6889L69.4086 62.487" stroke="#6B442E" stroke-width="1.5" stroke-linecap="round" stroke-linejoin="round"/>
<path d="M29.3359 14.0136C33.5109 14.0136 37.515 15.7274 40.4672 18.778C43.4194 21.8286 45.078 25.9662 45.078 30.2804" stroke="#6B442E" stroke-width="1.5" stroke-linecap="round" stroke-linejoin="round"/>
</svg>
